<svg width="40" height="36" xmlns="http://www.w3.org/2000/svg"><defs><linearGradient x1="5.184%" y1="63.877%" x2="94.816%" y2="35.881%" id="a"><stop stop-color="#C0D653" offset="0%"/><stop stop-color="#9AB625" offset="44.522%"/><stop stop-color="#FF8314" offset="56.346%"/><stop stop-color="#FFAC47" offset="100%"/></linearGradient></defs><path d="M33.25 0l3.654 13.515a2.663 2.663 0 01-1.902 3.264L23.31 19.882c-1.389.37-2.24 1.757-1.945 3.135l.878 3.254a2.664 2.664 0 01-1.902 3.266L8.65 32.643a2.664 2.664 0 00-1.902 3.266L3.092 22.386a2.664 2.664 0 011.902-3.266l11.692-3.105c1.406-.374 2.258-1.792 1.93-3.188l-.863-3.195a2.663 2.663 0 011.902-3.264l11.692-3.104A2.663 2.663 0 0033.25 0z" fill="url(#a)"/></svg>